<svg version="1.1" viewBox="0.0 0.0 960.0 720.0" fill="none" stroke="none" stroke-linecap="square" stroke-miterlimit="10" xmlns:xlink="http://www.w3.org/1999/xlink" xmlns="http://www.w3.org/2000/svg"><clipPath id="p.0"><path d="m0 0l960.0 0l0 720.0l-960.0 0l0 -720.0z" clip-rule="nonzero"/></clipPath><g clip-path="url(#p.0)"><path fill="#000000" fill-opacity="0.0" d="m0 0l960.0 0l0 720.0l-960.0 0z" fill-rule="evenodd"/><path fill="#000000" d="m299.3727 296.0l0 0c0 -5.16626 4.18808 -9.35434 9.354309 -9.35434l0 0c2.4809265 0 4.86026 0.9855652 6.6145325 2.7398376c1.7542725 1.7542725 2.7398071 4.1335754 2.7398071 6.614502l0 0c0 5.16626 -4.18808 9.35434 -9.35434 9.35434l0 0c-5.1662292 0 -9.354309 -4.18808 -9.354309 -9.35434z" fill-rule="evenodd"/><path stroke="#000000" stroke-width="1.0" stroke-linejoin="round" stroke-linecap="butt" stroke-dasharray="4.0,3.0" d="m299.3727 296.0l0 0c0 -5.16626 4.18808 -9.35434 9.354309 -9.35434l0 0c2.4809265 0 4.86026 0.9855652 6.6145325 2.7398376c1.7542725 1.7542725 2.7398071 4.1335754 2.7398071 6.614502l0 0c0 5.16626 -4.18808 9.35434 -9.35434 9.35434l0 0c-5.1662292 0 -9.354309 -4.18808 -9.354309 -9.35434z" fill-rule="evenodd"/><path fill="#158dff" fill-opacity="0.7538" d="m461.29135 89.04199l0 0c0 -5.166252 4.1880493 -9.354324 9.354309 -9.354324l0 0c2.4809265 0 4.8602295 0.9855423 6.6145325 2.7398148c1.7542725 1.7542801 2.7398071 4.1335907 2.7398071 6.6145096l0 0c0 5.16626 -4.18808 9.354332 -9.35434 9.354332l0 0c-5.16626 0 -9.354309 -4.188072 -9.354309 -9.354332z" fill-rule="evenodd"/><path fill="#158dff" fill-opacity="0.7538" d="m461.29135 594.84515l0 0c0 -5.16626 4.1880493 -9.35437 9.354309 -9.35437l0 0c2.4809265 0 4.8602295 0.9855957 6.6145325 2.7398682c1.7542725 1.7542725 2.7398071 4.133545 2.7398071 6.614502l0 0c0 5.16626 -4.18808 9.354309 -9.35434 9.354309l0 0c-5.16626 0 -9.354309 -4.1880493 -9.354309 -9.354309z" fill-rule="evenodd"/><path fill="#158dff" fill-opacity="0.7538" d="m95.614174 360.0l0 0c0 -5.16626 4.188072 -9.35434 9.354332 -9.35434l0 0c2.480919 0 4.8602295 0.9855652 6.6145096 2.7398376c1.7542801 1.7542725 2.7398224 4.1335754 2.7398224 6.614502l0 0c0 5.16626 -4.18808 9.35434 -9.354332 9.35434l0 0c-5.16626 0 -9.354332 -4.18808 -9.354332 -9.35434z" fill-rule="evenodd"/><path fill="#9900ff" d="m816.3123 360.0l0 0c0 -5.16626 4.1881104 -9.35434 9.35437 -9.35434l0 0c2.480896 0 4.8602295 0.9855652 6.614502 2.7398376c1.7542725 1.7542725 2.7398071 4.1335754 2.7398071 6.614502l0 0c0 5.16626 -4.1880493 9.35434 -9.354309 9.35434l0 0c-5.16626 0 -9.35437 -4.18808 -9.35437 -9.35434z" fill-rule="evenodd"/><path fill="#158dff" fill-opacity="0.7538" d="m389.7349 129.69292l0 0c0 -5.16626 4.18808 -9.354332 9.35434 -9.354332l0 0c2.4809265 0 4.8602295 0.9855423 6.614502 2.7398148c1.754303 1.7542801 2.7398376 4.1335907 2.7398376 6.614517l0 0c0 5.1662445 -4.18808 9.354324 -9.35434 9.354324l0 0c-5.16626 0 -9.35434 -4.18808 -9.35434 -9.354324z" fill-rule="evenodd"/><path fill="#158dff" fill-opacity="0.7538" d="m499.23883 136.3412l0 0c0 -5.1662445 4.18808 -9.354324 9.35434 -9.354324l0 0c2.4809265 0 4.86026 0.9855423 6.6145325 2.7398224c1.7542725 1.7542725 2.7398071 4.1335907 2.7398071 6.614502l0 0c0 5.16626 -4.1880493 9.35434 -9.35434 9.35434l0 0c-5.16626 0 -9.35434 -4.18808 -9.35434 -9.35434z" fill-rule="evenodd"/><path fill="#158dff" fill-opacity="0.7538" d="m461.29135 142.14174l0 0c0 -5.16626 4.1880493 -9.35434 9.354309 -9.35434l0 0c2.4809265 0 4.8602295 0.9855499 6.6145325 2.7398224c1.7542725 1.7542725 2.7398071 4.1335907 2.7398071 6.614517l0 0c0 5.1662445 -4.18808 9.354324 -9.35434 9.354324l0 0c-5.16626 0 -9.354309 -4.18808 -9.354309 -9.354324z" fill-rule="evenodd"/><path fill="#158dff" fill-opacity="0.7538" d="m470.64566 203.75066l0 0c0 -5.16626 4.18808 -9.354324 9.35434 -9.354324l0 0c2.4809265 0 4.8602295 0.98553467 6.614502 2.7398071c1.7542725 1.7542877 2.7398376 4.1335907 2.7398376 6.614517l0 0c0 5.16626 -4.18808 9.354324 -9.35434 9.354324l0 0c-5.16626 0 -9.35434 -4.1880646 -9.35434 -9.354324z" fill-rule="evenodd"/><path fill="#158dff" fill-opacity="0.7538" d="m541.2913 169.04199l0 0c0 -5.1662445 4.1881104 -9.354324 9.35437 -9.354324l0 0c2.480896 0 4.8602295 0.98553467 6.614502 2.7398224c1.7542725 1.7542725 2.7398071 4.1335754 2.7398071 6.614502l0 0c0 5.16626 -4.1880493 9.35434 -9.354309 9.35434l0 0c-5.16626 0 -9.35437 -4.18808 -9.35437 -9.35434z" fill-rule="evenodd"/><path fill="#158dff" fill-opacity="0.7538" d="m421.28348 213.09448l0 0c0 -5.1662445 4.1880493 -9.354324 9.354309 -9.354324l0 0c2.4809265 0 4.8602295 0.98553467 6.6145325 2.7398224c1.7542725 1.7542725 2.7398071 4.1335907 2.7398071 6.614502l0 0c0 5.16626 -4.18808 9.35434 -9.35434 9.35434l0 0c-5.16626 0 -9.354309 -4.18808 -9.354309 -9.35434z" fill-rule="evenodd"/><path fill="#158dff" fill-opacity="0.7538" d="m143.61417 319.04724l0 0c0 -5.16626 4.18808 -9.35434 9.35434 -9.35434l0 0c2.4809265 0 4.8602295 0.9855652 6.614502 2.7398376c1.7542877 1.7542725 2.7398224 4.1335754 2.7398224 6.614502l0 0c0 5.16626 -4.1880646 9.35434 -9.354324 9.35434l0 0c-5.16626 0 -9.35434 -4.18808 -9.35434 -9.35434z" fill-rule="evenodd"/><path fill="#158dff" fill-opacity="0.7538" d="m162.32283 378.70865l0 0c0 -5.1662292 4.18808 -9.354309 9.35434 -9.354309l0 0c2.4809113 0 4.8602295 0.98553467 6.614502 2.7398071c1.7542877 1.7542725 2.7398224 4.133606 2.7398224 6.614502l0 0c0 5.16626 -4.18808 9.35434 -9.354324 9.35434l0 0c-5.16626 0 -9.35434 -4.18808 -9.35434 -9.35434z" fill-rule="evenodd"/><path fill="#158dff" fill-opacity="0.7538" d="m92.90551 453.29135l0 0c0 -5.16626 4.18808 -9.35434 9.354332 -9.35434l0 0c2.4809265 0 4.860237 0.98553467 6.6145096 2.7398071c1.7542801 1.7542725 2.7398224 4.133606 2.7398224 6.6145325l0 0c0 5.1662292 -4.18808 9.354309 -9.354332 9.354309l0 0c-5.166252 0 -9.354332 -4.18808 -9.354332 -9.354309z" fill-rule="evenodd"/><path fill="#158dff" fill-opacity="0.7538" d="m76.90551 314.34122l0 0c0 -5.16626 4.18808 -9.35434 9.354332 -9.35434l0 0c2.4809265 0 4.860237 0.98553467 6.6145096 2.7398071c1.7542801 1.754303 2.7398224 4.133606 2.7398224 6.6145325l0 0c0 5.1662292 -4.18808 9.354309 -9.354332 9.354309l0 0c-5.166252 0 -9.354332 -4.18808 -9.354332 -9.354309z" fill-rule="evenodd"/><path fill="#158dff" fill-opacity="0.7538" d="m162.32283 405.14697l0 0c0 -5.16626 4.18808 -9.354309 9.35434 -9.354309l0 0c2.4809113 0 4.8602295 0.98553467 6.614502 2.7398071c1.7542877 1.7542725 2.7398224 4.1335754 2.7398224 6.614502l0 0c0 5.16626 -4.18808 9.35434 -9.354324 9.35434l0 0c-5.16626 0 -9.35434 -4.18808 -9.35434 -9.35434z" fill-rule="evenodd"/><path fill="#158dff" fill-opacity="0.7538" d="m23.304462 378.70865l0 0c0 -5.1662292 4.188076 -9.354309 9.354332 -9.354309l0 0c2.4809227 0 4.8602333 0.98553467 6.6145096 2.7398071c1.7542763 1.7542725 2.7398186 4.133606 2.7398186 6.614502l0 0c0 5.16626 -4.188076 9.35434 -9.354328 9.35434l0 0c-5.166256 0 -9.354332 -4.18808 -9.354332 -9.35434z" fill-rule="evenodd"/><path fill="#158dff" fill-opacity="0.7538" d="m184.66405 488.0l0 0c0 -5.16626 4.1880646 -9.35434 9.354324 -9.35434l0 0c2.4809265 0 4.8602295 0.9855652 6.614517 2.7398376c1.7542725 1.7542725 2.7398071 4.1335754 2.7398071 6.614502l0 0c0 5.16626 -4.1880646 9.35434 -9.354324 9.35434l0 0c-5.16626 0 -9.354324 -4.18808 -9.354324 -9.35434z" fill-rule="evenodd"/><path fill="#158dff" fill-opacity="0.7538" d="m34.90026 272.6404l0 0c0 -5.16626 4.18808 -9.354309 9.354332 -9.354309l0 0c2.4809227 0 4.8602333 0.98553467 6.6145096 2.7398071c1.7542801 1.7542725 2.7398224 4.1335754 2.7398224 6.614502l0 0c0 5.16626 -4.188076 9.35434 -9.354332 9.35434l0 0c-5.166252 0 -9.354332 -4.18808 -9.354332 -9.35434z" fill-rule="evenodd"/><path fill="#158dff" fill-opacity="0.7538" d="m162.32283 453.29135l0 0c0 -5.16626 4.18808 -9.35434 9.35434 -9.35434l0 0c2.4809113 0 4.8602295 0.98553467 6.614502 2.7398071c1.7542877 1.7542725 2.7398224 4.133606 2.7398224 6.6145325l0 0c0 5.1662292 -4.18808 9.354309 -9.354324 9.354309l0 0c-5.16626 0 -9.35434 -4.18808 -9.35434 -9.354309z" fill-rule="evenodd"/><path fill="#158dff" fill-opacity="0.7538" d="m92.90551 253.93176l0 0c0 -5.16626 4.18808 -9.35434 9.354332 -9.35434l0 0c2.4809265 0 4.860237 0.9855499 6.6145096 2.7398224c1.7542801 1.7542725 2.7398224 4.1335907 2.7398224 6.614517l0 0c0 5.16626 -4.18808 9.35434 -9.354332 9.35434l0 0c-5.166252 0 -9.354332 -4.18808 -9.354332 -9.35434z" fill-rule="evenodd"/><path fill="#158dff" fill-opacity="0.7538" d="m499.23883 558.9921l0 0c0 -5.16626 4.18808 -9.354309 9.35434 -9.354309l0 0c2.4809265 0 4.86026 0.98553467 6.6145325 2.7398071c1.7542725 1.7542725 2.7398071 4.133606 2.7398071 6.614502l0 0c0 5.16626 -4.1880493 9.354309 -9.35434 9.354309l0 0c-5.16626 0 -9.35434 -4.1880493 -9.35434 -9.354309z" fill-rule="evenodd"/><path fill="#158dff" fill-opacity="0.7538" d="m493.29135 626.84515l0 0c0 -5.16626 4.1880493 -9.35437 9.354309 -9.35437l0 0c2.4809265 0 4.8602295 0.9855957 6.6145325 2.7398682c1.7542725 1.7542725 2.7398071 4.133545 2.7398071 6.614502l0 0c0 5.16626 -4.18808 9.354309 -9.35434 9.354309l0 0c-5.16626 0 -9.354309 -4.1880493 -9.354309 -9.354309z" fill-rule="evenodd"/><path fill="#158dff" fill-opacity="0.7538" d="m479.7848 327.49344l0 0c0 -5.16626 4.1880493 -9.35434 9.354309 -9.35434l0 0c2.4809265 0 4.8602295 0.9855652 6.6145325 2.7398376c1.7542725 1.7542725 2.7398071 4.1335754 2.7398071 6.614502l0 0c0 5.16626 -4.18808 9.35434 -9.35434 9.35434l0 0c-5.16626 0 -9.354309 -4.18808 -9.354309 -9.35434z" fill-rule="evenodd"/><path fill="#158dff" fill-opacity="0.7538" d="m517.9475 601.8924l0 0c0 -5.16626 4.1880493 -9.354309 9.354309 -9.354309l0 0c2.480957 0 4.8602295 0.98553467 6.614502 2.7398071c1.7543335 1.7542725 2.7398682 4.133545 2.7398682 6.614502l0 0c0 5.16626 -4.1881104 9.354309 -9.35437 9.354309l0 0c-5.16626 0 -9.354309 -4.1880493 -9.354309 -9.354309z" fill-rule="evenodd"/><path fill="#158dff" fill-opacity="0.7538" d="m415.7848 608.1365l0 0c0 -5.16626 4.1880493 -9.354309 9.354309 -9.354309l0 0c2.4809265 0 4.8602295 0.98553467 6.6145325 2.7398071c1.7542725 1.7542725 2.7398071 4.133606 2.7398071 6.614502l0 0c0 5.16626 -4.18808 9.354309 -9.35434 9.354309l0 0c-5.16626 0 -9.354309 -4.1880493 -9.354309 -9.354309z" fill-rule="evenodd"/><path fill="#158dff" fill-opacity="0.7538" d="m448.48557 620.6011l0 0c0 -5.16626 4.18808 -9.35437 9.35434 -9.35437l0 0c2.4809265 0 4.8602295 0.98553467 6.614502 2.7398071c1.7542725 1.7543335 2.7398071 4.133606 2.7398071 6.614563l0 0c0 5.16626 -4.18808 9.354309 -9.354309 9.354309l0 0c-5.16626 0 -9.35434 -4.1880493 -9.35434 -9.354309z" fill-rule="evenodd"/><path fill="#158dff" fill-opacity="0.7538" d="m434.49344 588.54333l0 0c0 -5.16626 4.18808 -9.35437 9.35434 -9.35437l0 0c2.4809265 0 4.8602295 0.98553467 6.614502 2.7398071c1.7542725 1.7542725 2.7398071 4.133606 2.7398071 6.614563l0 0c0 5.1661987 -4.1880493 9.354309 -9.354309 9.354309l0 0c-5.16626 0 -9.35434 -4.1881104 -9.35434 -9.354309z" fill-rule="evenodd"/><path fill="#158dff" fill-opacity="0.7538" d="m439.99213 569.83466l0 0c0 -5.16626 4.18808 -9.35437 9.35434 -9.35437l0 0c2.4809265 0 4.8602295 0.9855957 6.614502 2.7398682c1.7542725 1.7542725 2.7398071 4.133545 2.7398071 6.614502l0 0c0 5.16626 -4.1880493 9.354309 -9.354309 9.354309l0 0c-5.16626 0 -9.35434 -4.1880493 -9.35434 -9.354309z" fill-rule="evenodd"/><path fill="#158dff" fill-opacity="0.7538" d="m536.6562 569.83466l0 0c0 -5.16626 4.1880493 -9.35437 9.354309 -9.35437l0 0c2.480896 0 4.8602295 0.9855957 6.614502 2.7398682c1.7542725 1.7542725 2.7398071 4.133545 2.7398071 6.614502l0 0c0 5.16626 -4.1880493 9.354309 -9.354309 9.354309l0 0c-5.16626 0 -9.354309 -4.1880493 -9.354309 -9.354309z" fill-rule="evenodd"/><path fill="#158dff" fill-opacity="0.7538" d="m843.7126 350.64566l0 0c0 -5.16626 4.1881104 -9.354309 9.35437 -9.354309l0 0c2.480896 0 4.8602295 0.98553467 6.614502 2.7398071c1.7542725 1.7542725 2.7398071 4.1335754 2.7398071 6.614502l0 0c0 5.16626 -4.1881104 9.35434 -9.354309 9.35434l0 0c-5.16626 0 -9.35437 -4.18808 -9.35437 -9.35434z" fill-rule="evenodd"/><path fill="#158dff" fill-opacity="0.7538" d="m828.76117 410.70078l0 0c0 -5.1662292 4.1880493 -9.354309 9.354309 -9.354309l0 0c2.480957 0 4.8602295 0.98553467 6.614502 2.7398071c1.7542725 1.7542725 2.7398071 4.133606 2.7398071 6.614502l0 0c0 5.16626 -4.1880493 9.35434 -9.354309 9.35434l0 0c-5.16626 0 -9.354309 -4.18808 -9.354309 -9.35434z" fill-rule="evenodd"/><path fill="#158dff" fill-opacity="0.7538" d="m871.11285 345.9475l0 0c0 -5.16626 4.1881104 -9.35434 9.354309 -9.35434l0 0c2.480957 0 4.8602905 0.98553467 6.614563 2.7398376c1.7542725 1.7542725 2.7398071 4.1335754 2.7398071 6.614502l0 0c0 5.16626 -4.1881104 9.35434 -9.35437 9.35434l0 0c-5.1661987 0 -9.354309 -4.18808 -9.354309 -9.35434z" fill-rule="evenodd"/><path fill="#158dff" fill-opacity="0.7538" d="m779.15485 350.64566l0 0c0 -5.16626 4.1881104 -9.354309 9.35437 -9.354309l0 0c2.480896 0 4.8602295 0.98553467 6.614502 2.7398071c1.7542725 1.7542725 2.7398071 4.1335754 2.7398071 6.614502l0 0c0 5.16626 -4.1881104 9.35434 -9.354309 9.35434l0 0c-5.16626 0 -9.35437 -4.18808 -9.35437 -9.35434z" fill-rule="evenodd"/><path fill="#158dff" fill-opacity="0.7538" d="m871.11285 437.29135l0 0c0 -5.16626 4.1881104 -9.35434 9.354309 -9.35434l0 0c2.480957 0 4.8602905 0.98553467 6.614563 2.7398071c1.7542725 1.7542725 2.7398071 4.133606 2.7398071 6.6145325l0 0c0 5.1662292 -4.1881104 9.354309 -9.35437 9.354309l0 0c-5.1661987 0 -9.354309 -4.18808 -9.354309 -9.354309z" fill-rule="evenodd"/><path fill="#158dff" fill-opacity="0.7538" d="m862.42255 295.63254l0 0c0 -5.16626 4.1881104 -9.354309 9.35437 -9.354309l0 0c2.480896 0 4.8602295 0.98553467 6.614502 2.7398071c1.7542725 1.7542725 2.7398071 4.1335754 2.7398071 6.614502l0 0c0 5.16626 -4.1880493 9.35434 -9.354309 9.35434l0 0c-5.16626 0 -9.35437 -4.18808 -9.35437 -9.35434z" fill-rule="evenodd"/><path fill="#158dff" fill-opacity="0.7538" d="m816.3123 272.6404l0 0c0 -5.16626 4.1881104 -9.354309 9.35437 -9.354309l0 0c2.480896 0 4.8602295 0.98553467 6.614502 2.7398071c1.7542725 1.7542725 2.7398071 4.1335754 2.7398071 6.614502l0 0c0 5.16626 -4.1880493 9.35434 -9.354309 9.35434l0 0c-5.16626 0 -9.35437 -4.18808 -9.35437 -9.35434z" fill-rule="evenodd"/><path fill="#158dff" fill-opacity="0.7538" d="m881.1312 221.08136l0 0c0 -5.1662445 4.1881104 -9.354324 9.354309 -9.354324l0 0c2.480957 0 4.8602905 0.98553467 6.614563 2.7398224c1.7542725 1.7542725 2.7398071 4.1335907 2.7398071 6.614502l0 0c0 5.16626 -4.1881104 9.35434 -9.35437 9.35434l0 0c-5.1661987 0 -9.354309 -4.18808 -9.354309 -9.35434z" fill-rule="evenodd"/><path fill="#158dff" fill-opacity="0.7538" d="m915.2598 410.70078l0 0c0 -5.1662292 4.1881104 -9.354309 9.35437 -9.354309l0 0c2.480896 0 4.8602295 0.98553467 6.614502 2.7398071c1.7542725 1.7542725 2.7398071 4.133606 2.7398071 6.614502l0 0c0 5.16626 -4.1880493 9.35434 -9.354309 9.35434l0 0c-5.16626 0 -9.35437 -4.18808 -9.35437 -9.35434z" fill-rule="evenodd"/><path fill="#158dff" fill-opacity="0.7538" d="m720.44617 364.65616l0 0c0 -5.16626 4.1881104 -9.354309 9.35437 -9.354309l0 0c2.480896 0 4.8602295 0.98553467 6.614502 2.7398071c1.7542725 1.7542725 2.7398071 4.1335754 2.7398071 6.614502l0 0c0 5.16626 -4.1880493 9.35434 -9.354309 9.35434l0 0c-5.16626 0 -9.35437 -4.18808 -9.35437 -9.35434z" fill-rule="evenodd"/><path fill="#158dff" fill-opacity="0.7538" d="m469.28217 395.6496l0 0c0 -5.16626 4.1880493 -9.354309 9.354309 -9.354309l0 0c2.4809265 0 4.8602295 0.98553467 6.6145325 2.7398071c1.7542725 1.7542725 2.7398071 4.1335754 2.7398071 6.614502l0 0c0 5.16626 -4.18808 9.35434 -9.35434 9.35434l0 0c-5.16626 0 -9.354309 -4.18808 -9.354309 -9.35434z" fill-rule="evenodd"/><path fill="#158dff" fill-opacity="0.7538" d="m532.4173 319.04724l0 0c0 -5.16626 4.1881104 -9.35434 9.35437 -9.35434l0 0c2.480896 0 4.8602295 0.9855652 6.614502 2.7398376c1.7542725 1.7542725 2.7398071 4.1335754 2.7398071 6.614502l0 0c0 5.16626 -4.1880493 9.35434 -9.354309 9.35434l0 0c-5.16626 0 -9.35437 -4.18808 -9.35437 -9.35434z" fill-rule="evenodd"/><path fill="#158dff" fill-opacity="0.7538" d="m463.7848 551.43567l0 0c0 -5.1661987 4.1880493 -9.354309 9.354309 -9.354309l0 0c2.4809265 0 4.8602295 0.98553467 6.6145325 2.7398071c1.7542725 1.7542725 2.7398071 4.133606 2.7398071 6.614502l0 0c0 5.16626 -4.18808 9.35437 -9.35434 9.35437l0 0c-5.16626 0 -9.354309 -4.1881104 -9.354309 -9.35437z" fill-rule="evenodd"/><path fill="#158dff" fill-opacity="0.7538" d="m408.44357 391.99213l0 0c0 -5.16626 4.18808 -9.35434 9.35434 -9.35434l0 0c2.480896 0 4.8602295 0.9855652 6.614502 2.7398376c1.7542725 1.7542725 2.7398071 4.1335754 2.7398071 6.614502l0 0c0 5.16626 -4.18808 9.35434 -9.354309 9.35434l0 0c-5.16626 0 -9.35434 -4.18808 -9.35434 -9.35434z" fill-rule="evenodd"/><path fill="#158dff" fill-opacity="0.7538" d="m499.23883 407.49344l0 0c0 -5.16626 4.18808 -9.35434 9.35434 -9.35434l0 0c2.4809265 0 4.86026 0.9855652 6.6145325 2.7398376c1.7542725 1.7542725 2.7398071 4.1335754 2.7398071 6.614502l0 0c0 5.16626 -4.1880493 9.35434 -9.35434 9.35434l0 0c-5.16626 0 -9.35434 -4.18808 -9.35434 -9.35434z" fill-rule="evenodd"/><path fill="#158dff" fill-opacity="0.7538" d="m511.7848 599.43567l0 0c0 -5.1661987 4.1880493 -9.354309 9.354309 -9.354309l0 0c2.480957 0 4.8602295 0.98553467 6.614502 2.7398071c1.7542725 1.7542725 2.7398071 4.133606 2.7398071 6.614502l0 0c0 5.16626 -4.1880493 9.35437 -9.354309 9.35437l0 0c-5.16626 0 -9.354309 -4.1881104 -9.354309 -9.35437z" fill-rule="evenodd"/><path fill="#158dff" fill-opacity="0.7538" d="m353.82416 308.7848l0 0c0 -5.16626 4.18808 -9.35434 9.354309 -9.35434l0 0c2.4809265 0 4.8602295 0.98553467 6.6145325 2.7398071c1.7542725 1.7542725 2.7398071 4.133606 2.7398071 6.6145325l0 0c0 5.1662292 -4.18808 9.354309 -9.35434 9.354309l0 0c-5.1662292 0 -9.354309 -4.18808 -9.354309 -9.354309z" fill-rule="evenodd"/><path fill="#158dff" fill-opacity="0.7538" d="m458.70078 295.63254l0 0c0 -5.16626 4.18808 -9.354309 9.35434 -9.354309l0 0c2.4809265 0 4.8602295 0.98553467 6.614502 2.7398071c1.754303 1.7542725 2.7398376 4.1335754 2.7398376 6.614502l0 0c0 5.16626 -4.18808 9.35434 -9.35434 9.35434l0 0c-5.16626 0 -9.35434 -4.18808 -9.35434 -9.35434z" fill-rule="evenodd"/><path fill="#158dff" fill-opacity="0.7538" d="m527.7848 375.49344l0 0c0 -5.16626 4.1880493 -9.35434 9.354309 -9.35434l0 0c2.480957 0 4.8602295 0.9855652 6.614502 2.7398376c1.7542725 1.7542725 2.7398071 4.1335754 2.7398071 6.614502l0 0c0 5.16626 -4.1880493 9.35434 -9.354309 9.35434l0 0c-5.16626 0 -9.354309 -4.18808 -9.354309 -9.35434z" fill-rule="evenodd"/><path fill="#158dff" fill-opacity="0.7538" d="m536.6562 453.29135l0 0c0 -5.16626 4.1880493 -9.35434 9.354309 -9.35434l0 0c2.480896 0 4.8602295 0.98553467 6.614502 2.7398071c1.7542725 1.7542725 2.7398071 4.133606 2.7398071 6.6145325l0 0c0 5.1662292 -4.1880493 9.354309 -9.354309 9.354309l0 0c-5.16626 0 -9.354309 -4.18808 -9.354309 -9.354309z" fill-rule="evenodd"/><path fill="#158dff" fill-opacity="0.7538" d="m434.49344 449.14697l0 0c0 -5.16626 4.18808 -9.354309 9.35434 -9.354309l0 0c2.4809265 0 4.8602295 0.98553467 6.614502 2.7398071c1.7542725 1.7542725 2.7398071 4.1335754 2.7398071 6.614502l0 0c0 5.16626 -4.1880493 9.35434 -9.354309 9.35434l0 0c-5.16626 0 -9.35434 -4.18808 -9.35434 -9.35434z" fill-rule="evenodd"/><path fill="#158dff" fill-opacity="0.7538" d="m555.3648 414.3596l0 0c0 -5.16626 4.1881104 -9.35434 9.35437 -9.35434l0 0c2.480896 0 4.8602295 0.98553467 6.614502 2.7398071c1.7542725 1.754303 2.7398071 4.133606 2.7398071 6.6145325l0 0c0 5.16626 -4.1880493 9.354309 -9.354309 9.354309l0 0c-5.16626 0 -9.35437 -4.1880493 -9.35437 -9.354309z" fill-rule="evenodd"/><path fill="#158dff" fill-opacity="0.7538" d="m427.15222 333.04987l0 0c0 -5.16626 4.18808 -9.35434 9.35434 -9.35434l0 0c2.4809265 0 4.8602295 0.9855652 6.614502 2.7398376c1.7542725 1.7542725 2.7398376 4.1335754 2.7398376 6.614502l0 0c0 5.16626 -4.18808 9.35434 -9.35434 9.35434l0 0c-5.16626 0 -9.35434 -4.18808 -9.35434 -9.35434z" fill-rule="evenodd"/><path fill="#000000" fill-opacity="0.0" d="m311.6961 297.35434l159.3386 -0.3779602" fill-rule="evenodd"/><path stroke="#ff00ff" stroke-width="4.0" stroke-linejoin="round" stroke-linecap="butt" stroke-dasharray="32.0,12.0" d="m311.6961 297.35434l159.3386 -0.3779602" fill-rule="evenodd"/><path fill="#000000" fill-opacity="0.0" d="m825.6667 361.93164l-356.56696 0" fill-rule="evenodd"/><path stroke="#ff00ff" stroke-width="4.0" stroke-linejoin="round" stroke-linecap="butt" stroke-dasharray="32.0,12.0" d="m825.6667 361.93164l-356.56696 0" fill-rule="evenodd"/><path fill="#000000" fill-opacity="0.0" d="m484.53018 292.45956c17.777496 0 32.188995 2.3148804 32.188995 5.17041l0 20.941559c0 2.8555298 14.411499 5.17041 32.188965 5.17041l0 0c-17.777466 0 -32.188965 2.3148499 -32.188965 5.1703796l0 20.424103l0 0c0 2.8555298 -14.411499 5.1703796 -32.188995 5.1703796z" fill-rule="evenodd"/><path fill="#000000" fill-opacity="0.0" d="m484.53018 292.45956c17.777496 0 32.188995 2.3148804 32.188995 5.17041l0 20.941559c0 2.8555298 14.411499 5.17041 32.188965 5.17041l0 0c-17.777466 0 -32.188965 2.3148499 -32.188965 5.1703796l0 20.424103l0 0c0 2.8555298 -14.411499 5.1703796 -32.188995 5.1703796" fill-rule="evenodd"/><path stroke="#000000" stroke-width="4.0" stroke-linejoin="round" stroke-linecap="butt" d="m484.53018 292.45956c17.777496 0 32.188995 2.3148804 32.188995 5.17041l0 20.941559c0 2.8555298 14.411499 5.17041 32.188965 5.17041l0 0c-17.777466 0 -32.188965 2.3148499 -32.188965 5.1703796l0 20.424103l0 0c0 2.8555298 -14.411499 5.1703796 -32.188995 5.1703796" fill-rule="evenodd"/><path fill="#000000" fill-opacity="0.0" d="m555.26117 291.1719l41.165344 0l0 54.92914l-41.165344 0z" fill-rule="evenodd"/><path fill="#000000" d="m566.3393 330.8919l0 -16.59375l2.53125 0l0 2.515625q0.96875 -1.765625 1.78125 -2.328125q0.828125 -0.5625 1.8125 -0.5625q1.421875 0 2.890625 0.90625l-0.96875 2.609375q-1.03125 -0.609375 -2.0625 -0.609375q-0.921875 0 -1.65625 0.5625q-0.734375 0.546875 -1.046875 1.53125q-0.46875 1.5 -0.46875 3.28125l0 8.6875l-2.8125 0z" fill-rule="nonzero"/><path fill="#000000" fill-opacity="0.0" d="m470.979 47.50656l0 634.2992" fill-rule="evenodd"/><path stroke="#980000" stroke-width="4.0" stroke-linejoin="round" stroke-linecap="butt" d="m470.979 47.50656l0 634.2992" fill-rule="evenodd"/></g></svg>